# xmcd
# 
# Track frame offsets:
#     150
#     15005
#     33602
#     48255
#     66430
#     78579
#     96465
#     119117
#     135312
#     149217
#     158900
#     173652
# 
# Disc length: 2517
# 
# Revision: 7
# Processed by: cddbd v1.5.2PL0 Copyright (c) Steve Scherf et al.
# Submitted via: fre:ac v1.0.17
# 
DISCID=a809d30c
DTITLE=Otis Taylor - Respect The Dead
DYEAR=2001
DGENRE=Blues
TTITLE0=Ten Million Slaves
TTITLE1=Hands On Your Stomach
TTITLE2=Changing Rules
TTITLE3=32nd Time
TTITLE4=Baby So
TTITLE5=Shaker Woman
TTITLE6=Black Witch
TTITLE7=Seven Hours Of Light
TTITLE8=I Like You, But I Don't Love You
TTITLE9=Jump Jelly Belly
TTITLE10=Three Stripes On A Cadillac
TTITLE11=Just Live Your Life
EXTD=
EXTT0=
EXTT1=
EXTT2=
EXTT3=
EXTT4=
EXTT5=
EXTT6=
EXTT7=
EXTT8=
EXTT9=
EXTT10=
EXTT11=
PLAYORDER=
